<mxfile host="app.diagrams.net" modified="2020-11-18T16:47:27.073Z" agent="5.0 (Macintosh; Intel Mac OS X 10_15_7) AppleWebKit/605.1.15 (KHTML, like Gecko) Version/14.0.1 Safari/605.1.15" etag="sDkNuLMH3R5rrC-ZTZAO" version="13.9.9" type="github">
  <diagram id="QGg_SWdPI7nTH9CGpfqN" name="第 1 页">
    <mxGraphModel dx="830" dy="819" grid="1" gridSize="10" guides="1" tooltips="1" connect="1" arrows="1" fold="1" page="1" pageScale="1" pageWidth="827" pageHeight="1169" math="0" shadow="0">
      <root>
        <mxCell id="0" />
        <mxCell id="1" parent="0" />
        <mxCell id="fF32da3hAEL_u4iR9Sk4-7" style="edgeStyle=orthogonalEdgeStyle;rounded=0;orthogonalLoop=1;jettySize=auto;html=1;fontFamily=Comic Sans MS;fontSize=16;" edge="1" parent="1" source="fF32da3hAEL_u4iR9Sk4-1" target="fF32da3hAEL_u4iR9Sk4-2">
          <mxGeometry relative="1" as="geometry" />
        </mxCell>
        <mxCell id="fF32da3hAEL_u4iR9Sk4-1" value="fork" style="rounded=0;whiteSpace=wrap;html=1;shadow=1;strokeColor=#36393d;fontFamily=Comic Sans MS;fontSize=16;fillColor=#cce5ff;" vertex="1" parent="1">
          <mxGeometry x="160" y="320" width="120" height="60" as="geometry" />
        </mxCell>
        <mxCell id="fF32da3hAEL_u4iR9Sk4-8" style="edgeStyle=orthogonalEdgeStyle;rounded=0;orthogonalLoop=1;jettySize=auto;html=1;entryX=0.5;entryY=0;entryDx=0;entryDy=0;fontFamily=Comic Sans MS;fontSize=16;" edge="1" parent="1" source="fF32da3hAEL_u4iR9Sk4-2" target="fF32da3hAEL_u4iR9Sk4-3">
          <mxGeometry relative="1" as="geometry" />
        </mxCell>
        <mxCell id="fF32da3hAEL_u4iR9Sk4-2" value="&lt;span style=&quot;color: rgb(51, 51, 51);&quot;&gt;sys_fork&lt;/span&gt;" style="rounded=0;whiteSpace=wrap;html=1;shadow=1;strokeColor=#36393d;fontFamily=Comic Sans MS;fontSize=16;fillColor=#cce5ff;labelBackgroundColor=none;" vertex="1" parent="1">
          <mxGeometry x="160" y="410" width="120" height="60" as="geometry" />
        </mxCell>
        <mxCell id="fF32da3hAEL_u4iR9Sk4-6" style="edgeStyle=orthogonalEdgeStyle;rounded=0;orthogonalLoop=1;jettySize=auto;html=1;fontFamily=Comic Sans MS;fontSize=16;" edge="1" parent="1" source="fF32da3hAEL_u4iR9Sk4-3">
          <mxGeometry relative="1" as="geometry">
            <mxPoint x="220" y="810" as="targetPoint" />
          </mxGeometry>
        </mxCell>
        <mxCell id="fF32da3hAEL_u4iR9Sk4-9" style="edgeStyle=orthogonalEdgeStyle;rounded=0;orthogonalLoop=1;jettySize=auto;html=1;entryX=0;entryY=0.5;entryDx=0;entryDy=0;fontFamily=Comic Sans MS;fontSize=16;" edge="1" parent="1" source="fF32da3hAEL_u4iR9Sk4-3" target="fF32da3hAEL_u4iR9Sk4-4">
          <mxGeometry relative="1" as="geometry" />
        </mxCell>
        <mxCell id="fF32da3hAEL_u4iR9Sk4-10" style="edgeStyle=orthogonalEdgeStyle;rounded=0;orthogonalLoop=1;jettySize=auto;html=1;entryX=0;entryY=0.5;entryDx=0;entryDy=0;fontFamily=Comic Sans MS;fontSize=16;" edge="1" parent="1" source="fF32da3hAEL_u4iR9Sk4-3" target="fF32da3hAEL_u4iR9Sk4-5">
          <mxGeometry relative="1" as="geometry" />
        </mxCell>
        <mxCell id="fF32da3hAEL_u4iR9Sk4-3" value="&lt;span style=&quot;color: rgb(51, 51, 51);&quot;&gt;_do_fork&lt;/span&gt;" style="rounded=0;whiteSpace=wrap;html=1;shadow=1;strokeColor=#36393d;fontFamily=Comic Sans MS;fontSize=16;fillColor=#cce5ff;labelBackgroundColor=none;" vertex="1" parent="1">
          <mxGeometry x="160" y="510" width="120" height="60" as="geometry" />
        </mxCell>
        <mxCell id="fF32da3hAEL_u4iR9Sk4-4" value="&lt;span style=&quot;color: rgb(51, 51, 51);&quot;&gt;copy_process&lt;/span&gt;" style="rounded=0;whiteSpace=wrap;html=1;shadow=1;strokeColor=#36393d;fontFamily=Comic Sans MS;fontSize=16;fillColor=#cdeb8b;labelBackgroundColor=none;" vertex="1" parent="1">
          <mxGeometry x="280" y="620" width="180" height="60" as="geometry" />
        </mxCell>
        <mxCell id="fF32da3hAEL_u4iR9Sk4-5" value="&lt;span style=&quot;color: rgb(51, 51, 51);&quot;&gt;wake_up_new_task&lt;/span&gt;" style="rounded=0;whiteSpace=wrap;html=1;shadow=1;strokeColor=#36393d;fontFamily=Comic Sans MS;fontSize=16;fillColor=#cdeb8b;labelBackgroundColor=none;" vertex="1" parent="1">
          <mxGeometry x="280" y="720" width="176" height="60" as="geometry" />
        </mxCell>
      </root>
    </mxGraphModel>
  </diagram>
</mxfile>
